# xmcd
#
# Track frame offsets: 
#        150
#        6839
#        23587
#        39777
#        65908
#        79266
#        90436
#        109224
#        123871
#        145239
#        168133
#        184616
#        206426
#        220858
#        236221
#
# Disc length: 3282 seconds
#
# Revision: 0
# Processed by: cddbd v1.5.2PL0 Copyright (c) Steve Scherf et al.
# Submitted via: ExactAudioCopy v1.0b3
#
DISCID=c10cd00f
DTITLE=Narada Michael Walden - Thunder
DYEAR=2013
DGENRE=R&B
TTITLE0=Thunder
TTITLE1=Throw Your Hands Up
TTITLE2=Shake The House
TTITLE3=40 Days (feat. Matthew Charles Heulitt)
TTITLE4=Shirley Mae
TTITLE5=New York City
TTITLE6=We Belong Together
TTITLE7=Down Low
TTITLE8=Miracle Of Fatima (Dedicated to Mother Mary and The Children Of 
TTITLE8=Fatima)
TTITLE9=Dragonfly
TTITLE10=Movin' On
TTITLE11=Dreams Of Vinyl (feat. Nikita Germaine)
TTITLE12=Don't Wanna Let You Go
TTITLE13=Power
TTITLE14=Thunder - Angel Funk (feat. Angeline ''Angel Funk'' Saris)
EXTD=
EXTT0=
EXTT1=
EXTT2=
EXTT3=
EXTT4=
EXTT5=
EXTT6=
EXTT7=
EXTT8=
EXTT9=
EXTT10=
EXTT11=
EXTT12=
EXTT13=
EXTT14=
PLAYORDER=
